<svg width="40" height="40" viewBox="0 0 40 40" fill="none" xmlns="http://www.w3.org/2000/svg">
<path d="M35 30.0002H10C9.55797 30.0002 9.13405 30.1758 8.82149 30.4883C8.50893 30.8009 8.33333 31.2248 8.33333 31.6668C8.33333 32.1089 8.50893 32.5328 8.82149 32.8453C9.13405 33.1579 9.55797 33.3335 10 33.3335H35V36.6668H10C8.67392 36.6668 7.40215 36.14 6.46447 35.2024C5.52678 34.2647 5 32.9929 5 31.6668V6.66683C5 5.78277 5.35119 4.93493 5.97631 4.30981C6.60143 3.68469 7.44928 3.3335 8.33333 3.3335H35V30.0002ZM8.33333 26.7502C8.60333 26.6952 8.88167 26.6668 9.16667 26.6668H31.6667V6.66683H8.33333V26.7502ZM26.6667 15.0002H13.3333V11.6668H26.6667V15.0002Z" fill="#231F20"/>
</svg>
