<svg width="61" height="18" viewBox="0 0 61 18" fill="none" xmlns="http://www.w3.org/2000/svg">
<path d="M52.207 17.4703H9.07994C4.23218 17.4703 0.299805 13.5656 0.299805 8.75193C0.299805 3.93826 4.23218 0.020752 9.07994 0.020752H52.207C57.0548 0.020752 60.9871 3.92546 60.9871 8.75193C60.9871 13.5656 57.0548 17.4703 52.207 17.4703Z" fill="#1D1D1B"/>
<path d="M49.7703 12.5665C51.8923 12.5665 53.6125 10.8584 53.6125 8.75137C53.6125 6.64435 51.8923 4.93628 49.7703 4.93628C47.6484 4.93628 45.9282 6.64435 45.9282 8.75137C45.9282 10.8584 47.6484 12.5665 49.7703 12.5665Z" fill="url(#paint0_linear_16102_9227)"/>
<path d="M49.7702 10.9275C50.9807 10.9275 51.962 9.95309 51.962 8.7511C51.962 7.54911 50.9807 6.57471 49.7702 6.57471C48.5597 6.57471 47.5784 7.54911 47.5784 8.7511C47.5784 9.95309 48.5597 10.9275 49.7702 10.9275Z" fill="url(#paint1_linear_16102_9227)"/>
<path d="M51.6915 8.75129C51.6915 9.80108 50.8276 10.6588 49.7704 10.6588C48.7132 10.6588 47.8494 9.80108 47.8494 8.75129C47.8494 7.7015 48.7003 6.84375 49.7704 6.84375C50.8405 6.84375 51.6915 7.6887 51.6915 8.75129Z" fill="url(#paint2_linear_16102_9227)"/>
<path style="mix-blend-mode:multiply" d="M51.6915 8.75129C51.6915 9.80108 50.8276 10.6588 49.7704 10.6588C48.7132 10.6588 47.8494 9.80108 47.8494 8.75129C47.8494 7.7015 48.7003 6.84375 49.7704 6.84375C50.8405 6.84375 51.6915 7.6887 51.6915 8.75129Z" fill="url(#paint3_radial_16102_9227)"/>
<path style="mix-blend-mode:screen" d="M51.5109 9.74993C51.5109 9.37867 51.2015 9.07141 50.8276 9.07141C50.4537 9.07141 50.1443 9.37867 50.1443 9.74993C50.1443 10.1212 50.4537 10.4285 50.8276 10.4285C51.2015 10.4285 51.5109 10.1212 51.5109 9.74993Z" fill="url(#paint4_radial_16102_9227)"/>
<defs>
<linearGradient id="paint0_linear_16102_9227" x1="49.7703" y1="12.3232" x2="49.7703" y2="4.82106" gradientUnits="userSpaceOnUse">
<stop stop-color="#666666"/>
<stop offset="1" stop-color="#010104"/>
</linearGradient>
<linearGradient id="paint1_linear_16102_9227" x1="49.7831" y1="6.71553" x2="49.7831" y2="11.0043" gradientUnits="userSpaceOnUse">
<stop stop-color="#0B131C"/>
<stop offset="1" stop-color="#354039"/>
</linearGradient>
<linearGradient id="paint2_linear_16102_9227" x1="51.1242" y1="10.0955" x2="48.4358" y2="7.38808" gradientUnits="userSpaceOnUse">
<stop stop-color="#231F20"/>
<stop offset="0.08" stop-color="#212226"/>
<stop offset="0.2" stop-color="#1F2C37"/>
<stop offset="0.33" stop-color="#1A3C53"/>
<stop offset="0.47" stop-color="#13537B"/>
<stop offset="0.62" stop-color="#0A70AE"/>
<stop offset="0.78" stop-color="#0095EE"/>
<stop offset="0.8" stop-color="#0387D6"/>
<stop offset="0.84" stop-color="#0D689F"/>
<stop offset="0.88" stop-color="#154D71"/>
<stop offset="0.91" stop-color="#1B394E"/>
<stop offset="0.95" stop-color="#1F2A34"/>
<stop offset="0.98" stop-color="#222225"/>
<stop offset="1" stop-color="#231F20"/>
</linearGradient>
<radialGradient id="paint3_radial_16102_9227" cx="0" cy="0" r="1" gradientUnits="userSpaceOnUse" gradientTransform="translate(49.7704 8.75129) scale(1.92105 1.90754)">
<stop stop-color="#231F20"/>
<stop offset="0.2" stop-color="#165068"/>
<stop offset="0.38" stop-color="#0C78A1"/>
<stop offset="0.54" stop-color="#0594CB"/>
<stop offset="0.66" stop-color="#01A6E4"/>
<stop offset="0.73" stop-color="#00ADEE"/>
<stop offset="0.76" stop-color="#01A5E3"/>
<stop offset="0.81" stop-color="#0693C8"/>
<stop offset="0.87" stop-color="#0D749B"/>
<stop offset="0.94" stop-color="#184A5E"/>
<stop offset="1" stop-color="#231F20"/>
</radialGradient>
<radialGradient id="paint4_radial_16102_9227" cx="0" cy="0" r="1" gradientUnits="userSpaceOnUse" gradientTransform="translate(50.8276 9.74993) scale(0.683324 0.678522)">
<stop stop-color="#CCCCCC"/>
<stop offset="0.02" stop-color="#C4C4C4"/>
<stop offset="0.22" stop-color="#898989"/>
<stop offset="0.41" stop-color="#585858"/>
<stop offset="0.59" stop-color="#313131"/>
<stop offset="0.75" stop-color="#161616"/>
<stop offset="0.89" stop-color="#050505"/>
<stop offset="1"/>
</radialGradient>
</defs>
</svg>
