<svg width="40" height="40" viewBox="0 0 40 40" fill="none" xmlns="http://www.w3.org/2000/svg">
<path d="M12.1523 34.7068L3.334 36.6668L5.294 27.8485C4.00322 25.4341 3.32988 22.7379 3.334 20.0002C3.334 10.7952 10.7957 3.3335 20.0007 3.3335C29.2057 3.3335 36.6673 10.7952 36.6673 20.0002C36.6673 29.2052 29.2057 36.6668 20.0007 36.6668C17.2629 36.671 14.5667 35.9976 12.1523 34.7068ZM12.6357 31.1852L13.724 31.7685C15.6549 32.8004 17.8113 33.3381 20.0007 33.3335C22.6378 33.3335 25.2156 32.5515 27.4083 31.0864C29.6009 29.6213 31.3099 27.539 32.3191 25.1026C33.3282 22.6663 33.5923 19.9854 33.0778 17.399C32.5633 14.8125 31.2935 12.4368 29.4288 10.5721C27.5641 8.70737 25.1883 7.4375 22.6019 6.92303C20.0155 6.40856 17.3346 6.6726 14.8982 7.68177C12.4619 8.69094 10.3795 10.3999 8.91441 12.5926C7.44932 14.7852 6.66734 17.3631 6.66734 20.0002C6.66734 22.2235 7.209 24.3635 8.234 26.2768L8.81567 27.3652L7.724 32.2768L12.6357 31.1852ZM11.6673 20.0002H15.0007C15.0007 21.3262 15.5275 22.598 16.4651 23.5357C17.4028 24.4734 18.6746 25.0002 20.0007 25.0002C21.3268 25.0002 22.5985 24.4734 23.5362 23.5357C24.4739 22.598 25.0007 21.3262 25.0007 20.0002H28.334C28.334 22.2103 27.456 24.3299 25.8932 25.8927C24.3304 27.4555 22.2108 28.3335 20.0007 28.3335C17.7905 28.3335 15.6709 27.4555 14.1081 25.8927C12.5453 24.3299 11.6673 22.2103 11.6673 20.0002Z" fill="#231F20"/>
</svg>
