<svg width="40" height="40" viewBox="0 0 40 40" fill="none" xmlns="http://www.w3.org/2000/svg">
<path d="M20.0007 36.6668C10.7957 36.6668 3.33398 29.2052 3.33398 20.0002C3.33398 10.7952 10.7957 3.3335 20.0007 3.3335C29.2057 3.3335 36.6673 10.7952 36.6673 20.0002C36.6673 29.2052 29.2057 36.6668 20.0007 36.6668ZM20.0007 33.3335C23.5369 33.3335 26.9283 31.9287 29.4287 29.4283C31.9292 26.9278 33.334 23.5364 33.334 20.0002C33.334 16.4639 31.9292 13.0726 29.4287 10.5721C26.9283 8.07159 23.5369 6.66683 20.0007 6.66683C16.4644 6.66683 13.073 8.07159 10.5726 10.5721C8.07208 13.0726 6.66732 16.4639 6.66732 20.0002C6.66732 23.5364 8.07208 26.9278 10.5726 29.4283C13.073 31.9287 16.4644 33.3335 20.0007 33.3335ZM11.6673 21.6668H15.0007C15.0007 22.9929 15.5274 24.2647 16.4651 25.2024C17.4028 26.14 18.6746 26.6668 20.0007 26.6668C21.3267 26.6668 22.5985 26.14 23.5362 25.2024C24.4739 24.2647 25.0007 22.9929 25.0007 21.6668H28.334C28.334 23.877 27.456 25.9966 25.8932 27.5594C24.3304 29.1222 22.2108 30.0002 20.0007 30.0002C17.7905 30.0002 15.6709 29.1222 14.1081 27.5594C12.5453 25.9966 11.6673 23.877 11.6673 21.6668ZM13.334 18.3335C12.6709 18.3335 12.0351 18.0701 11.5662 17.6013C11.0974 17.1324 10.834 16.4965 10.834 15.8335C10.834 15.1705 11.0974 14.5346 11.5662 14.0657C12.0351 13.5969 12.6709 13.3335 13.334 13.3335C13.997 13.3335 14.6329 13.5969 15.1018 14.0657C15.5706 14.5346 15.834 15.1705 15.834 15.8335C15.834 16.4965 15.5706 17.1324 15.1018 17.6013C14.6329 18.0701 13.997 18.3335 13.334 18.3335ZM26.6673 18.3335C26.0043 18.3335 25.3684 18.0701 24.8996 17.6013C24.4307 17.1324 24.1673 16.4965 24.1673 15.8335C24.1673 15.1705 24.4307 14.5346 24.8996 14.0657C25.3684 13.5969 26.0043 13.3335 26.6673 13.3335C27.3304 13.3335 27.9662 13.5969 28.4351 14.0657C28.9039 14.5346 29.1673 15.1705 29.1673 15.8335C29.1673 16.4965 28.9039 17.1324 28.4351 17.6013C27.9662 18.0701 27.3304 18.3335 26.6673 18.3335Z" fill="#231F20"/>
</svg>
