<svg width="49" height="48" viewBox="0 0 49 48" fill="none" xmlns="http://www.w3.org/2000/svg">
<path d="M24.666 44C13.62 44 4.66602 35.046 4.66602 24C4.66602 12.954 13.62 4 24.666 4C35.712 4 44.666 12.954 44.666 24C44.666 35.046 35.712 44 24.666 44ZM24.666 40C28.9095 40 32.9791 38.3143 35.9797 35.3137C38.9803 32.3131 40.666 28.2435 40.666 24C40.666 19.7565 38.9803 15.6869 35.9797 12.6863C32.9791 9.68571 28.9095 8 24.666 8C20.4226 8 16.3529 9.68571 13.3523 12.6863C10.3517 15.6869 8.66602 19.7565 8.66602 24C8.66602 28.2435 10.3517 32.3131 13.3523 35.3137C16.3529 38.3143 20.4226 40 24.666 40ZM16.666 26H32.666C32.666 28.1217 31.8232 30.1566 30.3229 31.6569C28.8226 33.1571 26.7877 34 24.666 34C22.5443 34 20.5095 33.1571 19.0092 31.6569C17.5089 30.1566 16.666 28.1217 16.666 26ZM16.666 22C15.8704 22 15.1073 21.6839 14.5447 21.1213C13.9821 20.5587 13.666 19.7956 13.666 19C13.666 18.2044 13.9821 17.4413 14.5447 16.8787C15.1073 16.3161 15.8704 16 16.666 16C17.4617 16 18.2247 16.3161 18.7873 16.8787C19.3499 17.4413 19.666 18.2044 19.666 19C19.666 19.7956 19.3499 20.5587 18.7873 21.1213C18.2247 21.6839 17.4617 22 16.666 22ZM32.666 22C31.8704 22 31.1073 21.6839 30.5447 21.1213C29.9821 20.5587 29.666 19.7956 29.666 19C29.666 18.2044 29.9821 17.4413 30.5447 16.8787C31.1073 16.3161 31.8704 16 32.666 16C33.4617 16 34.2247 16.3161 34.7873 16.8787C35.3499 17.4413 35.666 18.2044 35.666 19C35.666 19.7956 35.3499 20.5587 34.7873 21.1213C34.2247 21.6839 33.4617 22 32.666 22Z" fill="#231F20"/>
</svg>
