<svg width="49" height="48" viewBox="0 0 49 48" fill="none" xmlns="http://www.w3.org/2000/svg">
<path d="M32.3335 4V8H30.3335V14.486C30.3335 16.802 30.8355 19.088 31.8055 21.19L40.3695 39.742C41.0635 41.248 40.4055 43.03 38.9015 43.722C38.5075 43.906 38.0795 44 37.6455 44H11.0215C9.36548 44 8.02148 42.656 8.02148 41C8.02148 40.566 8.11548 40.136 8.29748 39.742L16.8615 21.19C17.8315 19.09 18.3335 16.802 18.3335 14.486V8H16.3335V4H32.3335ZM27.1095 20.002H21.5575C21.3495 20.728 21.0975 21.444 20.8095 22.144L20.4935 22.866L12.5835 40H36.0815L28.1735 22.866C27.7455 21.938 27.3895 20.98 27.1095 20.002ZM22.3335 14.486C22.3335 14.992 22.3135 15.498 22.2755 16.002H26.3915C26.3715 15.76 26.3595 15.518 26.3495 15.274L26.3335 14.486V8H22.3335V14.486Z" fill="#231F20"/>
</svg>
