<svg width="41" height="40" viewBox="0 0 41 40" fill="none" xmlns="http://www.w3.org/2000/svg">
<path d="M20.64 34.9998H28.9733V38.3331H8.97333V34.9998H17.3067V33.2498C14.6641 32.9844 12.1232 32.0916 9.8956 30.6455C7.66797 29.1995 5.81808 27.2421 4.5 24.9364L7.395 23.2831C8.41297 25.0619 9.82729 26.582 11.5281 27.7255C13.2289 28.8689 15.1704 29.6049 17.2018 29.8763C19.2332 30.1477 21.2998 29.9471 23.2411 29.2902C25.1824 28.6332 26.9462 27.5376 28.3953 26.0885C29.8445 24.6393 30.9401 22.8755 31.597 20.9342C32.254 18.9929 32.4545 16.9263 32.1832 14.8949C31.9118 12.8635 31.1758 10.922 30.0324 9.2212C28.8889 7.5204 27.3688 6.10609 25.59 5.08812L27.245 2.19312C29.7964 3.65091 31.9169 5.75759 33.3912 8.29946C34.8656 10.8413 35.6414 13.7279 35.64 16.6664C35.64 25.3081 29.0633 32.4148 20.64 33.2498V34.9998ZM18.9733 28.3331C17.4412 28.3331 15.9242 28.0313 14.5087 27.445C13.0932 26.8587 11.8071 25.9994 10.7238 24.916C9.6404 23.8327 8.78104 22.5466 8.19474 21.1311C7.60843 19.7156 7.30667 18.1985 7.30667 16.6664C7.30667 15.1344 7.60843 13.6173 8.19474 12.2018C8.78104 10.7863 9.6404 9.50022 10.7238 8.41687C11.8071 7.33352 13.0932 6.47416 14.5087 5.88785C15.9242 5.30155 17.4412 4.99978 18.9733 4.99978C22.0675 4.99978 25.035 6.22894 27.2229 8.41687C29.4108 10.6048 30.64 13.5723 30.64 16.6664C30.64 19.7606 29.4108 22.7281 27.2229 24.916C25.035 27.104 22.0675 28.3331 18.9733 28.3331ZM18.9733 24.9998C21.1835 24.9998 23.3031 24.1218 24.8659 22.559C26.4287 20.9962 27.3067 18.8766 27.3067 16.6664C27.3067 14.4563 26.4287 12.3367 24.8659 10.7739C23.3031 9.21109 21.1835 8.33312 18.9733 8.33312C16.7632 8.33312 14.6436 9.21109 13.0808 10.7739C11.518 12.3367 10.64 14.4563 10.64 16.6664C10.64 18.8766 11.518 20.9962 13.0808 22.559C14.6436 24.1218 16.7632 24.9998 18.9733 24.9998Z" fill="#231F20"/>
<path d="M9.69519 12.8556H8.98073L7.93434 11.7759L7.58073 11.4111H7.07266H4.97266H3.05763L3.89278 13.1344L5.03917 15.5L3.89278 17.8656L3.05763 19.5889H4.97266H7.07266H7.58073L7.93434 19.2241L8.98073 18.1444H9.69519L8.71618 21.6797L8.29519 23.2H9.87266H11.9727H12.6798L13.0224 22.5814L15.4798 18.1444H19.5727C20.2745 18.1444 20.9398 17.8564 21.4243 17.3565C21.9075 16.8579 22.1727 16.1895 22.1727 15.5C22.1727 14.8105 21.9075 14.1421 21.4243 13.6435C20.9398 13.1436 20.2745 12.8556 19.5727 12.8556H15.4798L13.0224 8.4186L12.6798 7.8H11.9727H9.87266H8.29519L8.71618 9.32025L9.69519 12.8556Z" fill="#E5F0FF" stroke="#231F20" stroke-width="2.4" stroke-linecap="round"/>
</svg>
