<svg width="41" height="40" viewBox="0 0 41 40" fill="none" xmlns="http://www.w3.org/2000/svg">
<path d="M24.4173 34.9998H32.7507V38.3331H12.7507V34.9998H21.084V33.2498C18.4415 32.9844 15.9006 32.0916 13.6729 30.6455C11.4453 29.1995 9.59542 27.2421 8.27734 24.9364L11.1723 23.2831C12.1903 25.0619 13.6046 26.582 15.3054 27.7255C17.0062 28.8689 18.9477 29.6049 20.9791 29.8763C23.0105 30.1477 25.0772 29.9471 27.0185 29.2902C28.9598 28.6332 30.7235 27.5376 32.1727 26.0885C33.6219 24.6393 34.7175 22.8755 35.3744 20.9342C36.0313 18.9929 36.2319 16.9263 35.9605 14.8949C35.6892 12.8635 34.9532 10.922 33.8097 9.2212C32.6662 7.5204 31.1461 6.10609 29.3673 5.08812L31.0223 2.19312C33.5738 3.65091 35.6942 5.75759 37.1686 8.29946C38.6429 10.8413 39.4188 13.7279 39.4173 16.6664C39.4173 25.3081 32.8407 32.4148 24.4173 33.2498V34.9998ZM22.7507 28.3331C21.2186 28.3331 19.7015 28.0313 18.286 27.445C16.8706 26.8587 15.5844 25.9994 14.5011 24.916C13.4177 23.8327 12.5584 22.5466 11.9721 21.1311C11.3858 19.7156 11.084 18.1985 11.084 16.6664C11.084 15.1344 11.3858 13.6173 11.9721 12.2018C12.5584 10.7863 13.4177 9.50022 14.5011 8.41687C15.5844 7.33352 16.8706 6.47416 18.286 5.88785C19.7015 5.30155 21.2186 4.99978 22.7507 4.99978C25.8449 4.99978 28.8123 6.22894 31.0003 8.41687C33.1882 10.6048 34.4173 13.5723 34.4173 16.6664C34.4173 19.7606 33.1882 22.7281 31.0003 24.916C28.8123 27.104 25.8449 28.3331 22.7507 28.3331ZM22.7507 24.9998C24.9608 24.9998 27.0804 24.1218 28.6432 22.559C30.206 20.9962 31.084 18.8766 31.084 16.6664C31.084 14.4563 30.206 12.3367 28.6432 10.7739C27.0804 9.21109 24.9608 8.33312 22.7507 8.33312C20.5405 8.33312 18.4209 9.21109 16.8581 10.7739C15.2953 12.3367 14.4173 14.4563 14.4173 16.6664C14.4173 18.8766 15.2953 20.9962 16.8581 22.559C18.4209 24.1218 20.5405 24.9998 22.7507 24.9998Z" fill="#231F20"/>
<path d="M15.0275 18.1444L15.7419 18.1444L16.7883 19.2241L17.1419 19.5889L17.65 19.5889L19.75 19.5889L21.665 19.5889L20.8299 17.8656L19.6835 15.5L20.8299 13.1344L21.665 11.4111L19.75 11.4111L17.65 11.4111L17.1419 11.4111L16.7883 11.7759L15.7419 12.8556L15.0275 12.8556L16.0065 9.32025L16.4275 7.8L14.85 7.8L12.75 7.8L12.0429 7.8L11.7003 8.4186L9.24286 12.8556L5.15 12.8556C4.44812 12.8556 3.78287 13.1436 3.29837 13.6435C2.81511 14.1421 2.55 14.8105 2.55 15.5C2.55 16.1895 2.81511 16.8579 3.29837 17.3565C3.78287 17.8564 4.44812 18.1444 5.15 18.1444L9.24286 18.1444L11.7003 22.5814L12.0429 23.2L12.75 23.2L14.85 23.2L16.4275 23.2L16.0065 21.6797L15.0275 18.1444Z" fill="#E5F0FF" stroke="#231F20" stroke-width="2.4" stroke-linecap="round"/>
</svg>
