<?xml version="1.0" encoding="utf-8"?>
<!-- Generator: Adobe Illustrator 23.0.5, SVG Export Plug-In . SVG Version: 6.00 Build 0)  -->
<svg version="1.1" id="Capa_1" xmlns="http://www.w3.org/2000/svg" xmlns:xlink="http://www.w3.org/1999/xlink" x="0px" y="0px"
	 viewBox="0 0 82 82" style="enable-background:new 0 0 82 82;" xml:space="preserve">
<style type="text/css">
	.st0{fill:#34A853;}
	.st1{opacity:0.6;fill:#34A853;}
	.st2{fill:#F3F8FF;}
</style>
<circle class="st0" cx="41" cy="41" r="36"/>
<path class="st1" d="M41,82C18.4,82,0,63.6,0,41S18.4,0,41,0s41,18.4,41,41S63.6,82,41,82z M41,5C21.1,5,5,21.1,5,41s16.1,36,36,36
	s36-16.1,36-36S60.9,5,41,5z"/>
<path class="st2" d="M41,27.7c7.4,0,13.3,6,13.3,13.3s-6,13.3-13.3,13.3c-2.4,0-4.7-0.6-6.7-1.8l-6.6,1.8l1.8-6.6
	c-1.2-2-1.8-4.4-1.8-6.7C27.7,33.6,33.6,27.7,41,27.7z M36.5,34.7l-0.3,0c-0.2,0-0.3,0.1-0.5,0.1c-0.1,0.1-0.3,0.2-0.4,0.3
	c-0.2,0.2-0.3,0.3-0.3,0.4c-0.5,0.6-0.8,1.4-0.8,2.2c0,0.7,0.2,1.3,0.4,1.9c0.5,1.2,1.4,2.5,2.6,3.7c0.3,0.3,0.6,0.6,0.9,0.8
	c1.5,1.3,3.2,2.2,5.1,2.7L44,47c0.2,0,0.5,0,0.7,0c0.4,0,0.8-0.1,1.1-0.3c0.2-0.1,0.3-0.2,0.5-0.3c0,0,0.1,0,0.2-0.1
	c0.2-0.1,0.3-0.2,0.4-0.4c0.1-0.1,0.2-0.2,0.3-0.4c0.1-0.2,0.2-0.6,0.3-1c0-0.3,0-0.4,0-0.5c0-0.1-0.1-0.3-0.3-0.4l-0.8-0.3
	c0,0-1.2-0.5-1.9-0.8c-0.1,0-0.2-0.1-0.2-0.1c-0.1,0-0.2,0-0.3,0c-0.1,0-0.2,0.1-0.2,0.1c0,0-0.1,0.1-1.1,1.2
	c-0.1,0.1-0.1,0.1-0.2,0.2c-0.1,0-0.2,0-0.3,0c-0.1,0-0.2-0.1-0.3-0.1c-0.2-0.1-0.2-0.1-0.3-0.1c-0.8-0.3-1.5-0.8-2.1-1.3
	c-0.2-0.1-0.3-0.3-0.5-0.5c-0.5-0.5-1-1.1-1.4-1.7l-0.1-0.1c-0.1-0.1-0.1-0.2-0.1-0.3c-0.1-0.2,0.1-0.4,0.1-0.4s0.3-0.4,0.5-0.5
	c0.1-0.2,0.3-0.4,0.4-0.5c0.2-0.3,0.2-0.5,0.1-0.7c-0.4-0.9-0.8-1.8-1.2-2.7c-0.1-0.2-0.3-0.3-0.5-0.3c-0.1,0-0.1,0-0.2,0
	c-0.2,0-0.4,0-0.5,0L36.5,34.7L36.5,34.7z"/>
</svg>
