<svg width="147" height="266" viewBox="0 0 147 266" fill="none" xmlns="http://www.w3.org/2000/svg">
<g opacity="0.3">
<path d="M91.5182 137.523L87.1383 144.336L26.793 57.7112L81.2985 -28.427L131.911 45.0581L128.017 51.8713L81.2985 -15.7739L35.0661 57.7112L91.5182 137.523Z" fill="#00BFFF"/>
<path d="M10.7333 266L26.793 266L220.969 -44M87.1383 144.336L91.5182 137.523L35.0661 57.7112L81.2984 -15.7739L128.017 51.8713L131.911 45.0581L81.2984 -28.427L26.793 57.7112L87.1383 144.336Z" stroke="#00BFFF" stroke-width="1.5"/>
<line y1="-0.75" x2="74.945" y2="-0.75" transform="matrix(-1 3.17865e-08 3.17865e-08 1 87.1387 144.822)" stroke="#00BFFF" stroke-width="1.5"/>
<line y1="-0.75" x2="127.426" y2="-0.75" transform="matrix(0.565231 0.824932 0.824932 -0.565231 94.9248 130.223)" stroke="#00BFFF" stroke-width="1.5"/>
<line y1="-0.75" x2="194.399" y2="-0.75" transform="matrix(-0.570771 -0.821109 -0.821109 0.570771 207.829 247.994)" stroke="#00BFFF" stroke-width="1.5"/>
<line y1="-0.75" x2="53.5322" y2="-0.75" transform="matrix(-1 3.17865e-08 3.17865e-08 1 120.23 88.3691)" stroke="#00BFFF" stroke-width="1.5"/>
<line y1="-0.75" x2="55.921" y2="-0.75" transform="matrix(0.522154 -0.852851 -0.852851 -0.522154 61.832 96.1562)" stroke="#00BFFF" stroke-width="1.5"/>
<path d="M86.5582 41.365L120.624 88.084L123.637 82.5309L90.0581 35.8119L56.4788 87.3975" stroke="#00BFFF" stroke-width="1.5"/>
<path d="M120.231 88.3691L202.963 -42.5414L193.23 -42.5414L161.597 8.55753L154.784 -2.63556L128.505 39.2169" stroke="#00BFFF" stroke-width="1.5"/>
<path d="M162.083 21.6983L154.297 11.4785L147.838 21.6983L162.083 21.6983Z" fill="#00BFFF"/>
<path d="M115.851 72.3105L147.838 21.6983M147.838 21.6983L154.297 11.4785L162.083 21.6983L147.838 21.6983Z" stroke="#00BFFF" stroke-width="1.5"/>
<path d="M90.5449 35.3242L49.1792 35.3242" stroke="#00BFFF" stroke-width="1.5"/>
<path d="M26.793 57.7109L9.76 57.7109" stroke="#00BFFF" stroke-width="1.5"/>
<path d="M33.606 181.807L57.4521 144.334L7.32656 144.334L33.606 181.807Z" fill="#00BFFF" stroke="#00BFFF" stroke-width="1.5"/>
<path d="M33.6064 182.295L27.7666 182.295L1.00049 144.336" stroke="#00BFFF" stroke-width="1.5"/>
<circle cx="2.91994" cy="2.91994" r="2.16994" transform="matrix(1.19249e-08 -1 -1 -1.19249e-08 128.991 134.117)" fill="#00BFFF" stroke="#00BFFF" stroke-width="1.5"/>
<path d="M138.405 147.025L182.998 74.0622" stroke="#00BFFF" stroke-width="1.5"/>
<line y1="-0.75" x2="158.781" y2="-0.75" transform="matrix(0.533301 -0.845926 -0.845926 -0.533301 126.071 131.195)" stroke="#00BFFF" stroke-width="1.5"/>
</g>
</svg>
