<svg width="141" height="56" viewBox="0 0 141 56" fill="none" xmlns="http://www.w3.org/2000/svg">
<path d="M118.322 14.0791L96.0518 0.00575502V10.1593L102.688 14.3497V23.9622L96.0518 28.1525V56L118.322 41.9266L140.603 56V43.3196L128.497 35.6583V33.1545L140.603 40.8215V20.2035L134.315 24.1809L132.337 22.9319L140.603 17.7112V10.1593L129.808 16.9859V14.4878L140.603 7.66122V0L118.322 14.0734V14.0791ZM118.322 40.5855L97.1887 53.9394V28.7742L106.07 23.1563V36.9132L108.228 35.549V21.7979L118.322 15.426V40.5912V40.5855ZM139.46 22.2642V27.433L135.371 24.8486L139.46 22.2642ZM139.46 7.04533L128.665 13.8719V19.0523L139.46 12.2257V17.0953L131.275 22.2642L119.389 14.7526L139.466 2.07215V7.05108L139.46 7.04533Z" fill="white"/>
<path d="M13.0289 31.6178H15.7554V42.416C15.7554 45.9099 13.9919 47.5907 11.0566 47.5907C8.12134 47.5907 6.39265 45.7372 6.39265 42.2779V31.6178H9.1191V28.1584H0V31.6178H2.48861V42.4851C2.48861 48.3102 5.97498 51.1248 11.0566 51.1248C16.1383 51.1248 19.555 48.3159 19.555 42.416V31.6178H22.0436V28.1584H13.0289V31.6178Z" fill="white"/>
<path d="M24.2999 34.5993H27.9951V31.5141H32.2066V47.6539H29.3758V51.119H38.9473V47.6539H36.1107V31.5141H40.328V34.5993H44.0232V28.1526H24.2999V34.5993Z" fill="white"/>
<path d="M59.5423 47.6884H52.7726V40.9021H59.6467V37.6154H52.7726V31.5832H59.5075V34.5993H63.2375V28.1526H46.2755V31.6177H48.8685V47.6539H46.2755V51.119H63.2375V44.6723H59.5423V47.6884Z" fill="white"/>
<path d="M84.5883 36.3487H86.2416V32.0317C85.2148 30.915 83.9734 29.9941 82.5696 29.3321C80.9975 28.5896 79.234 28.1694 77.3661 28.1694C69.8945 28.1694 65.4916 33.3038 65.4916 39.6411C65.4916 45.9785 69.8945 51.1128 77.3661 51.1128C79.234 51.1128 80.9975 50.6926 82.5696 49.9501C83.9734 49.2882 85.2148 48.3672 86.2416 47.2505V42.9393H82.5696V45.6331C81.1832 46.8419 79.3733 47.5729 77.3893 47.5729C73.0154 47.5729 69.4652 44.0157 69.4652 39.6296C69.4652 35.2435 73.0096 31.6863 77.3893 31.6863C79.3733 31.6863 81.1774 32.4231 82.5696 33.6261V36.3314H84.5883V36.3487Z" fill="white"/>
</svg>
