<svg width="99" height="44" viewBox="0 0 99 44" fill="none" xmlns="http://www.w3.org/2000/svg">
<path d="M17.3605 11.0576L9.49198 16.0641V27.9268L7.81426 28.9986V17.1405L5.1688 18.8229L0 22.1153V44L17.3605 32.9378V11.0576Z" fill="#00BFFF"/>
<path d="M7.81426 28.9987L9.49198 27.9268V16.0641L17.3605 11.0577L0 0V7.9778L5.1688 11.2702V18.8229L7.81426 17.1405V28.9987Z" fill="#231F20"/>
<path d="M17.3604 11.0576V32.9378L34.7299 44V34.0322L25.2922 28.0127V26.0454L34.7299 32.0694V22.1153L28.2858 18.0133L17.3604 11.0576Z" fill="#231F20"/>
<path d="M34.7299 6.01953V0L17.3604 11.0577L28.2858 18.0134L34.7299 13.9114V7.9778L26.3142 13.3416V11.3833L34.7299 6.01953Z" fill="#00BFFF"/>
<path d="M30.5425 19.4515L34.73 22.1153V16.7832L30.5425 19.4515Z" fill="#00BFFF"/>
</svg>
