<svg width="27" height="32" viewBox="0 0 27 32" fill="none" xmlns="http://www.w3.org/2000/svg">
<path d="M22.6275 22.6274L13.2548 32L3.8822 22.6274C2.02849 20.7736 0.76611 18.4118 0.254682 15.8407C-0.256746 13.2695 0.00575384 10.6044 1.00899 8.18239C2.01222 5.7604 3.71112 3.69028 5.89087 2.23383C8.07061 0.777378 10.6333 0 13.2548 0C15.8764 0 18.4391 0.777378 20.6188 2.23383C22.7986 3.69028 24.4975 5.7604 25.5007 8.18239C26.5039 10.6044 26.7664 13.2695 26.255 15.8407C25.7436 18.4118 24.4812 20.7736 22.6275 22.6274ZM13.2548 16.2002C14.036 16.2002 14.7852 15.8899 15.3376 15.3375C15.89 14.7851 16.2004 14.0359 16.2004 13.2547C16.2004 12.4735 15.89 11.7243 15.3376 11.1719C14.7852 10.6195 14.036 10.3092 13.2548 10.3092C12.4736 10.3092 11.7244 10.6195 11.172 11.1719C10.6197 11.7243 10.3093 12.4735 10.3093 13.2547C10.3093 14.0359 10.6197 14.7851 11.172 15.3375C11.7244 15.8899 12.4736 16.2002 13.2548 16.2002Z" fill="#FBBC05"/>
<ellipse cx="13.2548" cy="13.2548" rx="5.89104" ry="5.89104" fill="white"/>
</svg>
