<svg width="43" height="32" viewBox="0 0 43 32" fill="none" xmlns="http://www.w3.org/2000/svg">
<path d="M32.8729 -4.6376e-06L25.4873 14.6909C24.184 17.3091 23.1703 19.9273 23.1703 22.5455C23.1703 30.5455 30.2662 31.7091 39.3895 32L42.2858 19.7818L37.3621 18.0364C36.4932 17.7455 36.3484 17.3091 36.638 16.4364L40.2584 2.32727L32.8729 -4.6376e-06ZM9.70259 -6.66321e-06L2.31707 14.6909C1.01375 17.3091 4.68318e-05 19.9273 4.66029e-05 22.5454C4.59035e-05 30.5455 7.09594 31.7091 16.2192 32L19.1155 19.7818L14.1918 18.0364C13.3229 17.7455 13.1781 17.3091 13.4678 16.4364L17.0881 2.32726L9.70259 -6.66321e-06Z" fill="url(#paint0_linear_3942_6069)"/>
<defs>
<linearGradient id="paint0_linear_3942_6069" x1="42.0387" y1="-0.842107" x2="-0.247066" y2="-0.84211" gradientUnits="userSpaceOnUse">
<stop stop-color="#00BFFF"/>
<stop offset="1" stop-color="#00FFFF"/>
</linearGradient>
</defs>
</svg>
