<svg width="185" height="496" viewBox="0 0 185 496" fill="none" xmlns="http://www.w3.org/2000/svg">
<g opacity="0.3">
<path d="M-22.7548 290.266L-29.7344 301.123L-125.898 163.082L-39.0405 25.8166L41.6127 142.919L35.4086 153.776L-39.0405 45.9799L-112.714 163.082L-22.7548 290.266Z" fill="#00BFFF"/>
<path d="M-151.49 495.001L-125.898 495.001L183.531 1.00026M-29.7344 301.123L-22.7548 290.266L-112.714 163.082L-39.0405 45.9799L35.4086 153.776L41.6127 142.919L-39.0405 25.8166L-125.898 163.082L-29.7344 301.123Z" stroke="#00BFFF" stroke-width="1.5"/>
<line y1="-0.75" x2="203.06" y2="-0.75" transform="matrix(0.565231 0.824932 0.824932 -0.565231 -17.3262 278.634)" stroke="#00BFFF" stroke-width="1.5"/>
<line y1="-0.75" x2="106.705" y2="-0.75" transform="matrix(-0.537816 0.843062 0.843062 0.537816 154.84 356.185)" stroke="#00BFFF" stroke-width="1.5"/>
<line y1="-0.75" x2="105.845" y2="-0.75" transform="matrix(-0.571494 -0.820606 -0.820606 0.571494 154.84 356.185)" stroke="#00BFFF" stroke-width="1.5"/>
<line y1="-0.75" x2="309.785" y2="-0.75" transform="matrix(-0.570771 -0.821109 -0.821109 0.570771 162.593 466.309)" stroke="#00BFFF" stroke-width="1.5"/>
<line y1="-0.75" x2="85.3063" y2="-0.75" transform="matrix(-1 3.17865e-08 3.17865e-08 1 23 211.94)" stroke="#00BFFF" stroke-width="1.5"/>
<path d="M-30.6594 137.032L23.6264 211.481L28.4283 202.632L-25.082 128.183L-78.5924 210.387" stroke="#00BFFF" stroke-width="1.5"/>
<path d="M23.0029 211.94L154.84 3.32738L139.33 3.32738L88.9214 84.7561L78.0642 66.9193L36.1866 133.613" stroke="#00BFFF" stroke-width="1.5"/>
<path d="M89.6934 105.694L77.2852 89.4087L66.9926 105.694L89.6934 105.694Z" fill="#00BFFF"/>
<path d="M16.0198 186.348L66.9926 105.694M66.9926 105.694L77.2852 89.4087L89.6934 105.694L66.9926 105.694Z" stroke="#00BFFF" stroke-width="1.5"/>
<path d="M78.0605 66.9177L-10.3478 66.9177" stroke="#00BFFF" stroke-width="1.5"/>
<circle cx="4.65307" cy="4.65307" r="3.90307" transform="matrix(1.19249e-08 -1 -1 -1.19249e-08 159.49 360.837)" fill="#00BFFF" stroke="#00BFFF" stroke-width="1.5"/>
<circle cx="4.65307" cy="4.65307" r="3.90307" transform="matrix(1.19249e-08 -1 -1 -1.19249e-08 100.553 452.348)" fill="#00BFFF" stroke="#00BFFF" stroke-width="1.5"/>
<circle cx="4.65307" cy="4.65307" r="3.90307" transform="matrix(1.19249e-08 -1 -1 -1.19249e-08 100.553 452.348)" fill="#00BFFF" stroke="#00BFFF" stroke-width="1.5"/>
<circle cx="4.65307" cy="4.65307" r="3.90307" transform="matrix(1.19249e-08 -1 -1 -1.19249e-08 36.9609 284.839)" fill="#00BFFF" stroke="#00BFFF" stroke-width="1.5"/>
<circle cx="4.65307" cy="4.65307" r="3.90307" transform="matrix(1.19249e-08 -1 -1 -1.19249e-08 171.898 70.7972)" fill="#00BFFF" stroke="#00BFFF" stroke-width="1.5"/>
<circle cx="4.65307" cy="4.65307" r="3.90307" transform="matrix(1.19249e-08 -1 -1 -1.19249e-08 126.92 194.878)" fill="#00BFFF" stroke="#00BFFF" stroke-width="1.5"/>
<circle cx="4.65307" cy="4.65307" r="3.90307" transform="matrix(1.19249e-08 -1 -1 -1.19249e-08 99.001 273.98)" fill="#00BFFF" stroke="#00BFFF" stroke-width="1.5"/>
<path d="M51.9629 305.412L123.024 189.142" stroke="#00BFFF" stroke-width="1.5"/>
<line y1="-0.75" x2="253.026" y2="-0.75" transform="matrix(0.533301 -0.845926 -0.845926 -0.533301 32.3066 280.182)" stroke="#00BFFF" stroke-width="1.5"/>
</g>
</svg>
