<svg width="41" height="40" viewBox="0 0 41 40" fill="none" xmlns="http://www.w3.org/2000/svg">
<path d="M9.75 16.7084L13 18.0834C13.3889 17.3056 13.7917 16.5556 14.2083 15.8334C14.625 15.1112 15.0833 14.3889 15.5833 13.6667L13.25 13.2084L9.75 16.7084ZM15.6667 20.1667L20.4167 24.8751C21.5833 24.4306 22.8333 23.7501 24.1667 22.8334C25.5 21.9167 26.75 20.8751 27.9167 19.7084C29.8611 17.7639 31.3822 15.6045 32.48 13.2301C33.5778 10.8556 34.0567 8.66783 33.9167 6.66672C31.9167 6.52783 29.7222 7.00728 27.3333 8.10505C24.9444 9.20283 22.7778 10.7234 20.8333 12.6667C19.6667 13.8334 18.625 15.0834 17.7083 16.4167C16.7917 17.7501 16.1111 19.0001 15.6667 20.1667ZM23.0833 17.4584C22.4444 16.8195 22.125 16.0351 22.125 15.1051C22.125 14.1751 22.4444 13.3901 23.0833 12.7501C23.7222 12.1112 24.5139 11.7917 25.4583 11.7917C26.4028 11.7917 27.1944 12.1112 27.8333 12.7501C28.4722 13.3889 28.7917 14.1739 28.7917 15.1051C28.7917 16.0362 28.4722 16.8206 27.8333 17.4584C27.1944 18.0973 26.4028 18.4167 25.4583 18.4167C24.5139 18.4167 23.7222 18.0973 23.0833 17.4584ZM23.875 30.8334L27.375 27.3334L26.9167 25.0001C26.1944 25.5001 25.4722 25.9512 24.75 26.3534C24.0278 26.7556 23.2778 27.1517 22.5 27.5417L23.875 30.8334ZM36.9167 3.62505C37.4444 6.98616 37.1183 10.2573 35.9383 13.4384C34.7583 16.6195 32.7233 19.6534 29.8333 22.5401L30.6667 26.6667C30.7778 27.2223 30.75 27.7639 30.5833 28.2917C30.4167 28.8195 30.1389 29.2778 29.75 29.6667L22.75 36.6667L19.25 28.4584L12.125 21.3334L3.91667 17.8334L10.875 10.8334C11.2639 10.4445 11.7294 10.1667 12.2717 10.0001C12.8139 9.83339 13.3622 9.80561 13.9167 9.91672L18.0417 10.7501C20.9306 7.86116 23.9583 5.8195 27.125 4.62505C30.2917 3.43061 33.5556 3.09728 36.9167 3.62505ZM6.875 26.6251C7.84722 25.6528 9.035 25.1601 10.4383 25.1467C11.8417 25.1334 13.0289 25.6123 14 26.5834C14.9722 27.5556 15.4517 28.7434 15.4383 30.1467C15.425 31.5501 14.9317 32.7373 13.9583 33.7084C13.2639 34.4028 12.1044 35.0001 10.48 35.5C8.85556 36 6.61222 36.4445 3.75 36.8334C4.13889 33.9723 4.58333 31.7289 5.08333 30.1034C5.58333 28.4778 6.18056 27.3184 6.875 26.6251ZM9.25 28.9584C8.97222 29.2362 8.69444 29.7434 8.41667 30.4801C8.13889 31.2167 7.94444 31.9595 7.83333 32.7084C8.58333 32.5973 9.32667 32.4095 10.0633 32.1451C10.8 31.8806 11.3067 31.6101 11.5833 31.3334C11.9167 31.0001 12.0972 30.5973 12.125 30.1251C12.1528 29.6528 12 29.2501 11.6667 28.9167C11.3333 28.5834 10.9306 28.4234 10.4583 28.4367C9.98611 28.4501 9.58333 28.6239 9.25 28.9584Z" fill="white"/>
</svg>
